<svg width="23px" height="23px" viewBox="0 0 23 23" version="1.1" xmlns="http://www.w3.org/2000/svg" xmlns:xlink="http://www.w3.org/1999/xlink">
    <g stroke="none" stroke-width="1" fill="none" fill-rule="evenodd">
        <g fill="#FFFFFF" fill-rule="nonzero">
            <path d="M21.1054356,2.07417092 L0.479076973,10.1120433 C-0.189014191,10.3724168 -0.148540225,11.3311354 0.539178782,11.5341821 L5.78055735,13.081939 L7.7366411,19.2888044 C7.94097371,19.9371323 8.76256814,20.1336815 9.23817108,19.6480616 L11.9480994,16.8810772 L17.2652143,20.7839722 C17.9159112,21.2616057 18.8426161,20.9067478 19.0078284,20.1166933 L22.5294018,3.28006498 C22.7018561,2.45535716 21.8904817,1.7682473 21.1054356,2.07417092 Z M18.5194335,5.81063539 L8.93860959,14.2829599 C8.84310998,14.3674273 8.78233135,14.4843145 8.76811808,14.6110156 L8.39925,17.8900837 C8.38720257,17.9970216 8.23755719,18.0111672 8.20561118,17.9084256 L6.68797283,13.0181824 C6.61846319,12.7942896 6.70908968,12.5517165 6.90827844,12.4281965 L18.2222409,5.41117494 C18.4824113,5.24968517 18.7488085,5.60785947 18.5194335,5.81063539 Z"></path>
        </g>
    </g>
</svg>
